<?xml version="1.0" encoding="UTF-8"?><svg id="Layer_1" xmlns="http://www.w3.org/2000/svg" viewBox="0 0 303.39 165.6"><path d="M189.05,152.11c-6.18,6.9-7.35-9.84-8.95-13.55-12.84-29.76-64.97-25.12-67.4,8.79-.33,4.63,4.04,15.75-1.14,17.98-5.6,2.42-7.33-12.03-7.26-15.17.83-35.74,44.9-52,72.18-32.07,7.61,5.56,19.86,25.86,12.57,34.01Z" style="fill:#e9d095;"/><path d="M296.98,57.79c-28,10.57-56.32,25.61-79.42,45-8.19,6.87-15.33,20.39-26.52,19.21-5.13-5.09,19.13-25.51,23.31-28.84,23.32-18.53,52.51-32.88,81.86-38.53l.77,3.16Z" style="fill:#e9d095;"/><path d="M223.12,1.63c1.1,1.22-5.42,9.91-6.7,11.74-14.49,20.81-29.18,37.36-40.13,61-4.4,9.49-5.21,23.5-14.97,28.34-7.61-.38,4.15-29.07,5.82-32.67,11.72-25.18,34.09-51.65,55.97-68.41Z" style="fill:#e9d095;"/><path d="M101.15.03c2.31-.38,2.24,2.83,2.7,4.48,4.82,17.39,5.94,37.17,10.58,55.24,3.34,13.03,7.77,25.72,13.23,38-2.74,13.98-10.88.17-13.97-6.76C102.66,66.23,97.94,26.79,101.15.03Z" style="fill:#e9d095;"/><path d="M24.1,56.2c14.97,12.26,27.47,27.6,42.57,40.08,8.34,6.9,28.34,18.21,33.7,24.08,3.82,4.18,3.19,8.42-2.83,7.79-8.54-.9-31.15-19.67-38.16-26.19-5.34-4.96-39.27-40.65-35.28-45.77Z" style="fill:#e9d095;"/><path d="M303.39,131.65c0,2.57-5.49,2.57-7.47,2.94-15.67,2.94-33.24,3.18-49.29,5.29-10.29,1.36-23.18,5.45-32.58,6.08-6.69.45-10.16-3.58-4.39-7.73,10.17-7.33,65.99-9.14,80.15-8.27,4.57.28,8.92,2.12,13.57,1.69Z" style="fill:#e9d095;"/><path d="M88.28,157.29c-3.87,5.89-37.54-5.53-44.17-7.97-14.46-5.32-33.37-13.39-44.12-24.09,15.55,3.23,29.87,10.55,44.96,15.22,7.03,2.18,39.33,8.92,41.75,11.22,1.88,1.78,1.83,3.22,1.57,5.62Z" style="fill:#e9d095;"/></svg>